# xmcd
#
# Track frame offsets:
#	150
#	12959
#	27824
#	39135
#	50739
#	60879
#	75212
#	87294
#	98991
#	113992
#	123876
#	135907
#	148507
#	159571
#	173108
#	186749
#	198088
#	209433
#	220177
#	236953
#	247439
#	256826
#	268149
#	283939
#	294970
#	308670
#	321539
#	338177
#	350034
#	368995
#
# Disc length: 5070 seconds
#
# Revision: 1
# Processed by: cddbd v1.5.2PL0 Copyright (c) Steve Scherf et al.
# Submitted via: EZCDAudioConverter 7.1.4.1
#
DISCID=c913cc1e
DTITLE=Connie Smith - Just for What I am [CD2]
DYEAR=2012
DGENRE=USA Country
TTITLE0=Connie Smith - Gathering Flowers for the Master's Bouquet
TTITLE1=Connie Smith - Today I Started Loving You Again
TTITLE2=Connie Smith - Sound of a Different Drum
TTITLE3=Connie Smith - Happy Street
TTITLE4=Connie Smith - Gotta Lotta Blues to Lose
TTITLE5=Connie Smith - You
TTITLE6=Connie Smith - Ribbon of Darkness
TTITLE7=Connie Smith - You Don't Have Very Far to Go
TTITLE8=Connie Smith and Nat Stuckey - Let it Be Me
TTITLE9=Connie Smith and Nat Stuckey - I Got You
TTITLE10=Connie Smith and Nat Stuckey - Rings of Gold
TTITLE11=Connie Smith and Nat Stuckey - Together Alone
TTITLE12=Connie Smith and Nat Stuckey - Two Together
TTITLE13=Connie Smith and Nat Stuckey - Yours Love
TTITLE14=Connie Smith and Nat Stuckey - Stand Beside Me
TTITLE15=Connie Smith and Nat Stuckey - Something Pretty
TTITLE16=Connie Smith and Nat Stuckey - I'll Share My World with You
TTITLE17=Connie Smith and Nat Stuckey - Even the Bad Times Are Good
TTITLE18=Connie Smith and Nat Stuckey - Whispering Hope
TTITLE19=Connie Smith and Nat Stuckey - Young Love
TTITLE20=Connie Smith - Back in Baby's Arms
TTITLE21=Connie Smith - The Wedding Cake
TTITLE22=Connie Smith - Long Black Limousine
TTITLE23=Connie Smith - Fool #1
TTITLE24=Connie Smith - Too Many Rivers
TTITLE25=Connie Smith - I Can't Get Used to Being Lonely
TTITLE26=Connie Smith - Now
TTITLE27=Connie Smith - Gone Too Far
TTITLE28=Connie Smith - How Great Thou Art
TTITLE29=Connie Smith - The Call
EXTD=
EXTT0=
EXTT1=
EXTT2=
EXTT3=
EXTT4=
EXTT5=
EXTT6=
EXTT7=
EXTT8=
EXTT9=
EXTT10=
EXTT11=
EXTT12=
EXTT13=
EXTT14=
EXTT15=
EXTT16=
EXTT17=
EXTT18=
EXTT19=
EXTT20=
EXTT21=
EXTT22=
EXTT23=
EXTT24=
EXTT25=
EXTT26=
EXTT27=
EXTT28=
EXTT29=
PLAYORDER=
